Coordinates
version=1
nRows=34
nColumns=38
inDegrees=no

Units are S.I. units (second, meters, Newtons, ...)
If the header above contains a line with 'inDegrees', this indicates whether rotational values are in degrees (yes) or radians (no).

endheader
time	pelvis_tilt	pelvis_list	pelvis_rotation	pelvis_tx	pelvis_ty	pelvis_tz	hip_flexion_r	hip_adduction_r	hip_rotation_r	knee_angle_r	ankle_angle_r	subtalar_angle_r	mtp_angle_r	hip_flexion_l	hip_adduction_l	hip_rotation_l	knee_angle_l	ankle_angle_l	subtalar_angle_l	mtp_angle_l	lumbar_extension	lumbar_bending	lumbar_rotation	arm_flex_r	arm_add_r	arm_rot_r	elbow_flex_r	pro_sup_r	wrist_flex_r	wrist_dev_r	arm_flex_l	arm_add_l	arm_rot_l	elbow_flex_l	pro_sup_l	wrist_flex_l	wrist_dev_l
10	2.98657	1.34514	-1.49429	0.711319	1.73443	0.949887	0.0857073	-0.104931	-0.210333	0.661587	0.0516667	0	0	-0.14937	0.0283363	-0.247523	0.15908	-0.0272607	0	0	-0.325697	-0.0717961	0.0856513	0.739239	-0.328467	0.412225	1.0488	1.5708	0	0	0.647775	-0.145191	0.0243349	1.57672	0.872657	0	0
10.01	2.99345	1.34538	-1.50109	0.711023	1.73305	0.949868	0.0880678	-0.108449	-0.207606	0.68421	0.0534006	0	0	-0.148893	0.030568	-0.24685	0.156346	-0.0303863	0	0	-0.323576	-0.0727002	0.0847712	0.740337	-0.32742	0.414968	1.04384	1.5708	0	0	0.647874	-0.144258	0.0237412	1.57354	0.872657	0	0
10.02	3.00059	1.34637	-1.50812	0.710726	1.7317	0.949759	0.0908231	-0.112048	-0.204407	0.707015	0.0542932	0	0	-0.147354	0.0328741	-0.245848	0.154122	-0.033274	0	0	-0.320378	-0.0735886	0.0839398	0.741428	-0.326621	0.41838	1.03892	1.5708	0	0	0.647899	-0.143485	0.023828	1.57012	0.872657	0	0
10.03	3.00751	1.34731	-1.51432	0.710368	1.73037	0.949644	0.0926678	-0.115673	-0.201922	0.729263	0.0540789	0	0	-0.145121	0.0349188	-0.245324	0.153183	-0.0354465	0	0	-0.316999	-0.07412	0.0826297	0.742505	-0.325936	0.421819	1.03369	1.5708	0	0	0.647877	-0.1428	0.0243105	1.56635	0.872657	0	0
10.04	3.01397	1.34815	-1.52026	0.71009	1.72902	0.949536	0.093689	-0.118783	-0.199005	0.750729	0.0532021	0	0	-0.142389	0.0366126	-0.246075	0.153365	-0.0368013	0	0	-0.313743	-0.0744698	0.0818218	0.743467	-0.325718	0.425604	1.02935	1.5708	0	0	0.647842	-0.142064	0.0245454	1.56221	0.872657	0	0
10.05	3.01991	1.34879	-1.52574	0.709901	1.72765	0.949466	0.0935713	-0.121303	-0.196207	0.770906	0.0521294	0	0	-0.139584	0.0379338	-0.24696	0.153949	-0.0385105	0	0	-0.310815	-0.0746984	0.0811393	0.744397	-0.325423	0.429347	1.0255	1.5708	0	0	0.647823	-0.141658	0.0248607	1.5582	0.872657	0	0
10.06	3.02554	1.34946	-1.53106	0.70977	1.72626	0.949396	0.0926822	-0.123516	-0.193351	0.78978	0.0509719	0	0	-0.136634	0.0390559	-0.247532	0.15465	-0.0404833	0	0	-0.30789	-0.0748241	0.0806663	0.745171	-0.325126	0.432889	1.02199	1.5708	0	0	0.647634	-0.141527	0.0252867	1.55446	0.872657	0	0
10.07	3.03183	1.35034	-1.53723	0.709677	1.72482	0.949303	0.0914945	-0.125936	-0.190471	0.807713	0.0496046	0	0	-0.133272	0.0402173	-0.247662	0.155727	-0.0427959	0	0	-0.304824	-0.07511	0.0805825	0.745625	-0.325025	0.436025	1.019	1.5708	0	0	0.647361	-0.141374	0.0257213	1.55097	0.872657	0	0
10.08	3.03824	1.3511	-1.54352	0.709623	1.72336	0.949192	0.0895915	-0.12847	-0.188446	0.824748	0.0486486	0	0	-0.1296	0.0412067	-0.248428	0.157673	-0.0446838	0	0	-0.301809	-0.0754214	0.0806061	0.745806	-0.324758	0.438511	1.01606	1.5708	0	0	0.646949	-0.141222	0.0259904	1.54791	0.872657	0	0
10.09	3.04429	1.35156	-1.54955	0.709626	1.72186	0.949074	0.086497	-0.130753	-0.186987	0.840126	0.0482926	0	0	-0.125927	0.0420393	-0.249223	0.160195	-0.046031	0	0	-0.299261	-0.075584	0.0808095	0.745799	-0.32482	0.440999	1.01398	1.5708	0	0	0.646494	-0.141276	0.0263329	1.54562	0.872657	0	0
10.1	3.04937	1.35182	-1.55479	0.709705	1.72033	0.948971	0.082294	-0.132549	-0.185837	0.853619	0.0479703	0	0	-0.122278	0.0425282	-0.250348	0.162932	-0.047352	0	0	-0.297036	-0.0754723	0.0813501	0.745314	-0.325257	0.443224	1.01317	1.5708	0	0	0.646009	-0.141546	0.0269177	1.54357	0.872657	0	0
10.11	3.05482	1.3523	-1.56085	0.709833	1.71875	0.948828	0.0779432	-0.134389	-0.184532	0.865835	0.0475219	0	0	-0.118034	0.0430005	-0.252396	0.166205	-0.0485189	0	0	-0.294561	-0.0753637	0.0823607	0.744477	-0.325997	0.445362	1.01321	1.5708	0	0	0.645446	-0.141871	0.0275441	1.54079	0.872657	0	0
10.12	3.06054	1.35239	-1.56728	0.710002	1.71713	0.948705	0.072369	-0.136338	-0.183846	0.87621	0.0464824	0	0	-0.114361	0.0435289	-0.254221	0.169125	-0.0497958	0	0	-0.292456	-0.0752517	0.0834664	0.743039	-0.326498	0.446413	1.01388	1.5708	0	0	0.644482	-0.14206	0.0274736	1.5384	0.872657	0	0
10.13	3.06596	1.35249	-1.57369	0.710238	1.71547	0.948566	0.0662902	-0.138137	-0.183424	0.884957	0.0457191	0	0	-0.11036	0.0438117	-0.25654	0.172666	-0.0506164	0	0	-0.290367	-0.0750895	0.0848926	0.741193	-0.326933	0.446824	1.01516	1.5708	0	0	0.643232	-0.142179	0.026796	1.5359	0.872657	0	0
10.14	3.071	1.35275	-1.57982	0.710503	1.71374	0.9484	0.0598689	-0.139822	-0.183602	0.891988	0.0453003	0	0	-0.105686	0.0438997	-0.259002	0.176999	-0.0512161	0	0	-0.288228	-0.0747621	0.086421	0.739323	-0.327491	0.447293	1.01678	1.5708	0	0	0.641745	-0.142286	0.0256362	1.53353	0.872657	0	0
10.15	3.07635	1.3527	-1.5865	0.710827	1.71197	0.94824	0.0524056	-0.141717	-0.18465	0.897019	0.0444557	0	0	-0.100934	0.043951	-0.262366	0.181908	-0.0518184	0	0	-0.286532	-0.0745053	0.0882777	0.737195	-0.328355	0.447679	1.01948	1.5708	0	0	0.640213	-0.142125	0.0239601	1.53155	0.872657	0	0
10.16	3.08238	1.3525	-1.59417	0.711224	1.71016	0.948101	0.0443287	-0.143897	-0.186037	0.900341	0.0427353	0	0	-0.0963992	0.0443483	-0.265647	0.186359	-0.0530129	0	0	-0.284993	-0.0744391	0.0903699	0.735015	-0.328833	0.447868	1.02208	1.5708	0	0	0.638513	-0.142133	0.0226507	1.5306	0.872657	0	0
10.17	3.08733	1.35232	-1.60118	0.711674	1.70826	0.947963	0.0360976	-0.145788	-0.187214	0.902028	0.040003	0	0	-0.0918576	0.0443411	-0.268716	0.190825	-0.0544678	0	0	-0.283469	-0.07414	0.0927416	0.732996	-0.328945	0.447987	1.02443	1.5708	0	0	0.636597	-0.142219	0.0213709	1.53016	0.872657	0	0
10.18	3.09008	1.35203	-1.60619	0.712201	1.70627	0.94781	0.0272163	-0.146684	-0.188408	0.901461	0.0355663	0	0	-0.08708	0.0434059	-0.272269	0.196135	-0.0553718	0	0	-0.282149	-0.0733173	0.0953252	0.731013	-0.328815	0.447617	1.02704	1.5708	0	0	0.634733	-0.142247	0.0197915	1.52963	0.872657	0	0
10.19	3.09219	1.35078	-1.61029	0.712812	1.7042	0.947714	0.0165684	-0.147331	-0.190703	0.89858	0.0315617	0	0	-0.0833292	0.0421221	-0.275769	0.20139	-0.0560887	0	0	-0.281936	-0.0724142	0.0976832	0.729112	-0.328376	0.446608	1.02996	1.5708	0	0	0.633325	-0.142596	0.01878	1.5292	0.872657	0	0
10.2	3.09473	1.34964	-1.61507	0.713482	1.70209	0.947606	0.00580645	-0.148193	-0.193425	0.89394	0.0279192	0	0	-0.0793118	0.0409263	-0.280101	0.206678	-0.0568082	0	0	-0.281616	-0.0716154	0.100272	0.727252	-0.328038	0.445913	1.03338	1.5708	0	0	0.631805	-0.142815	0.0171745	1.52894	0.872657	0	0
10.21	3.09691	1.34886	-1.61978	0.714216	1.69989	0.947437	-0.00475473	-0.14893	-0.196624	0.887624	0.025582	0	0	-0.074428	0.0393614	-0.285187	0.21292	-0.0568371	0	0	-0.280953	-0.0707036	0.103076	0.725544	-0.327536	0.445477	1.03684	1.5708	0	0	0.630289	-0.142916	0.0145356	1.52875	0.872657	0	0
10.22	3.10011	1.34853	-1.62584	0.715012	1.6976	0.9472	-0.0146867	-0.150024	-0.200274	0.880549	0.0273391	0	0	-0.0690128	0.0380063	-0.290126	0.219014	-0.057166	0	0	-0.279823	-0.0700122	0.105971	0.724035	-0.326649	0.44536	1.03989	1.5708	0	0	0.628691	-0.143186	0.0117228	1.52861	0.872657	0	0
10.23	3.1017	1.34769	-1.62998	0.715869	1.69522	0.947006	-0.0257908	-0.150408	-0.204691	0.871593	0.0305289	0	0	-0.0642973	0.0361738	-0.294585	0.224638	-0.0577592	0	0	-0.279397	-0.0689709	0.108465	0.722952	-0.325399	0.445818	1.04249	1.5708	0	0	0.627391	-0.14373	0.00866028	1.52854	0.872657	0	0
10.24	3.10166	1.3465	-1.63219	0.716784	1.69276	0.946859	-0.0379601	-0.149885	-0.209746	0.860327	0.0338625	0	0	-0.0600777	0.0338991	-0.29803	0.229884	-0.0588053	0	0	-0.279476	-0.0675608	0.110644	0.722181	-0.323809	0.446781	1.04473	1.5708	0	0	0.626432	-0.144562	0.00601372	1.52791	0.872657	0	0
10.25	3.1	1.34514	-1.63302	0.717801	1.6902	0.946725	-0.050627	-0.148621	-0.215538	0.847023	0.0368905	0	0	-0.0560357	0.0310539	-0.301592	0.235224	-0.0597663	0	0	-0.279765	-0.0658231	0.113038	0.721701	-0.321758	0.447771	1.04668	1.5708	0	0	0.625961	-0.144984	0.00158781	1.5261	0.872657	0	0
10.26	3.09648	1.34347	-1.63199	0.718909	1.68754	0.946613	-0.063992	-0.146456	-0.222111	0.831152	0.0413945	0	0	-0.0514293	0.0272179	-0.306671	0.242173	-0.060084	0	0	-0.280641	-0.0636451	0.115566	0.722379	-0.319845	0.45	1.0479	1.5708	0	0	0.626572	-0.145102	-0.00446027	1.52252	0.872657	0	0
10.27	3.09283	1.34169	-1.63048	0.72005	1.68478	0.946515	-0.0783751	-0.143659	-0.230188	0.811344	0.0496602	0	0	-0.0469308	0.0234313	-0.310823	0.248677	-0.0609312	0	0	-0.281786	-0.061454	0.117671	0.723896	-0.317228	0.452469	1.04803	1.5708	0	0	0.628083	-0.145446	-0.0101637	1.51819	0.872657	0	0
10.28	3.09007	1.34037	-1.63015	0.721251	1.68189	0.946375	-0.092206	-0.140585	-0.238706	0.788743	0.0607724	0	0	-0.0423659	0.0202415	-0.314012	0.253809	-0.0627807	0	0	-0.282504	-0.0595829	0.119816	0.725933	-0.313588	0.454198	1.04731	1.5708	0	0	0.630223	-0.14616	-0.0150021	1.51414	0.872657	0	0
10.29	3.08587	1.33892	-1.62809	0.722497	1.67892	0.946264	-0.106905	-0.136408	-0.248469	0.762774	0.0704745	0	0	-0.0378712	0.0165568	-0.317025	0.258903	-0.0647873	0	0	-0.283568	-0.0573539	0.121741	0.728911	-0.309729	0.456507	1.04566	1.5708	0	0	0.633213	-0.147329	-0.0181417	1.51013	0.872657	0	0
10.3	3.07939	1.33767	-1.62344	0.723827	1.67581	0.946143	-0.121509	-0.130788	-0.258427	0.735561	0.0798383	0	0	-0.03218	0.011531	-0.320813	0.265833	-0.066151	0	0	-0.284729	-0.0545639	0.123705	0.73281	-0.305824	0.459406	1.04294	1.5708	0	0	0.637533	-0.148291	-0.02146	1.50397	0.872657	0	0
10.31	3.07263	1.33721	-1.6187	0.725244	1.67253	0.94595	-0.134786	-0.124516	-0.267672	0.709087	0.0910682	0	0	-0.0245881	0.00576793	-0.325632	0.274623	-0.0670947	0	0	-0.285192	-0.0518283	0.125793	0.737211	-0.301267	0.461826	1.03877	1.5708	0	0	0.64277	-0.149625	-0.0234458	1.49664	0.872657	0	0
10.32	3.06631	1.33682	-1.61462	0.726696	1.66912	0.945769	-0.147018	-0.118545	-0.277173	0.684646	0.102877	0	0	-0.0173301	0.000494036	-0.329437	0.282212	-0.0689005	0	0	-0.285732	-0.0491726	0.127927	0.742245	-0.29625	0.464168	1.03345	1.5708	0	0	0.64874	-0.151286	-0.0244152	1.48801	0.872657	0	0
10.33	3.05741	1.33622	-1.60795	0.728154	1.66553	0.945662	-0.15797	-0.111992	-0.286802	0.662068	0.112939	0	0	-0.0105792	-0.00515541	-0.332099	0.288767	-0.0714656	0	0	-0.286963	-0.0457724	0.130252	0.748267	-0.291422	0.467012	1.0273	1.5708	0	0	0.655342	-0.152664	-0.0252232	1.47846	0.872657	0	0
